<svg width="881" height="908" viewBox="0 0 881 908" fill="none" xmlns="http://www.w3.org/2000/svg">
<path d="M195.155 0.390659L195.546 0.373817C206.637 -0.0601218 219.865 0.262889 231.129 0.262835L297.087 0.270964L498.01 0.311393L621.133 0.302999C653.252 0.293224 689.861 -1.70838 720.801 4.70721C756.203 12.3052 788.875 29.3628 815.347 54.0636C854.883 90.6722 878.582 141.882 879.623 195.549C879.883 208.976 879.82 222.393 879.814 235.821L879.798 306.665L879.708 533.573L879.719 656.429C879.782 684.899 881.498 717.004 876.568 744.614C866.071 803.425 826.036 854.092 774.191 882.658C745.743 898.331 715.573 905.598 683.077 906.778C647.398 907.32 610.285 906.767 574.505 906.762L353.857 906.688L247.506 907.043C216.822 907.059 186.801 908.786 156.849 901.98C70.6282 882.393 2.46405 803.903 0.748643 714.613C0.470799 700.141 0.624859 685.633 0.613172 671.145L0.626985 587.46L0.29283 382.674L0.293357 259.901C0.327357 226.021 -1.92673 188.065 5.54795 155.298C25.8263 66.3996 105.355 3.80309 195.155 0.390659Z" fill="#1A73E8"/>
<path d="M514.388 603.184C537.826 629.062 530.968 671.303 493.52 676.414C476.148 678.635 456.837 677.901 439.38 677.806C384.451 677.514 328.437 681.137 275.79 662.112C241.856 649.324 209.328 632.643 172.47 630.029C158.87 629.391 144.581 630.029 131.04 629.854C120.234 629.715 110.417 622.538 109.567 611.424C108.841 601.93 109.172 591.554 109.179 581.96L109.165 528.822L109.089 458.238C109.073 446.008 108.832 433.691 109.218 421.487C109.847 407.212 118.325 400.401 132.094 400.456C157.438 400.558 186.376 402.126 208.426 387.485C234.643 370.075 251.147 341.249 277.557 323.901C290.08 315.675 304.335 310.074 318.175 304.474C346.631 293.142 377.37 283.048 404.013 267.709C412.622 262.69 420.909 257.136 428.824 251.081C436.166 245.364 445.208 235.825 453.522 232.546C465.034 228.711 477.083 232.116 484.749 241.593C500.118 260.592 494.434 288.866 480.876 307.219C464.662 329.172 440.804 341.96 418.505 356.703C415.368 358.778 412.157 360.55 409.244 362.934C411.137 364.793 410.455 367.199 410.179 369.736L635.088 369.718L699.077 369.693C716.517 369.69 744.148 366.997 758.221 378.469C780.331 396.152 773.26 436.351 744.451 442.342C733.236 444.674 712.671 443.479 700.463 443.463L606.002 443.478C593.65 443.487 568.363 442.81 557.366 444.054L556.563 444.148C570.015 450.315 578.669 458.881 581.336 473.902C584.04 489.105 581.835 504.644 569.754 515.334C561.887 522.293 553.275 523.574 543.277 525.422C553.482 534.619 559.682 541.998 560.952 556.039C563.847 588.123 542.751 600.873 514.388 603.184Z" fill="#FEFEFE"/>
</svg>
