<svg width="661" height="447" viewBox="0 0 661 447" fill="none" xmlns="http://www.w3.org/2000/svg">
<path d="M404.307 370.373C427.596 396.022 420.782 437.888 383.571 442.954C366.309 445.155 347.121 444.428 329.774 444.334C275.194 444.044 219.535 447.635 167.221 428.779C133.502 416.104 101.181 399.571 64.5564 396.98C51.0426 396.348 36.8436 396.98 23.3889 396.807C12.6518 396.669 2.89652 389.556 2.05192 378.54C1.3303 369.13 1.6597 358.846 1.66604 349.337L1.65283 296.67L1.57682 226.712C1.56099 214.59 1.32132 202.383 1.70562 190.287C2.33011 176.138 10.7541 169.388 24.4362 169.442C49.6194 169.543 78.3738 171.097 100.284 156.586C126.335 139.331 142.735 110.76 168.977 93.5664C181.421 85.4131 195.585 79.8616 209.338 74.3106C237.613 63.0797 268.157 53.0752 294.632 37.8718C303.186 32.8974 311.42 27.3928 319.285 21.3916C326.581 15.7253 335.565 6.27046 343.827 3.02055C355.266 -0.780147 367.238 2.59456 374.856 11.9879C390.127 30.818 384.479 58.8415 371.007 77.0314C354.896 98.7903 331.189 111.465 309.032 126.077C305.915 128.134 302.724 129.89 299.829 132.253C297.6 134.301 299.587 137.77 300.758 138.995C300.581 146.194 319.46 138.977 524.242 138.977L587.825 138.952C605.155 138.949 632.611 136.28 646.594 147.65C668.564 165.176 661.538 205.019 632.912 210.957C621.768 213.268 601.333 212.084 589.202 212.068L495.34 212.083C483.066 212.092 457.94 211.421 447.012 212.654L446.215 212.747C459.581 218.859 468.18 227.349 470.831 242.237C473.517 257.305 471.326 272.707 459.322 283.302C451.505 290.199 442.947 291.469 433.013 293.3C443.153 302.416 449.314 309.73 450.576 323.646C453.452 355.446 432.49 368.083 404.307 370.373Z" fill="white" stroke="#1A73E8" stroke-width="2.97719" stroke-linecap="round" stroke-linejoin="round"/>
</svg>
